{"asset":{"version":"2.0","generator":"babylon.js glTF exporter for 3ds max 2019 v1.3.27"},"scene":0,"scenes":[{"nodes":[0,1,2,3],"extensions":{}}],"nodes":[{"translation":[1319.71716,1891.23621,100.074593],"rotation":[-0.198041677,-0.435696274,-0.0184457973,0.877842844],"scale":[1.0,1.0,0.9999999],"name":"Camera001.Target"},{"mesh":0,"translation":[22.6230164,0.0,-72.3165],"rotation":[0.0,0.0,0.0,1.0],"scale":[1.0,1.0,1.0],"name":"Box001"},{"translation":[0.0,0.0,0.0],"rotation":[0.0,0.0,0.0,1.0],"scale":[1.0,1.0,1.0],"name":"Default light"},{"camera":0,"translation":[2008.82019,1346.22192,4399.10156],"rotation":[0.0620286167,0.0792329,-0.004939843,0.994912148],"scale":[0.9999999,0.99999994,1.0],"name":"Camera001"}],"cameras":[{"perspective":{"yfov":1.46563017,"zfar":10000.0,"znear":0.1},"type":"perspective","name":"Camera001"}],"meshes":[{"primitives":[{"attributes":{"POSITION":1,"NORMAL":2,"TEXCOORD_0":3},"indices":0}],"name":"Box001"}],"accessors":[{"bufferView":0,"componentType":5123,"count":36,"type":"SCALAR","name":"accessorIndices"},{"bufferView":1,"componentType":5126,"count":36,"max":[2500.0,3300.0,1500.0],"min":[-2500.0,0.0,-1500.0],"type":"VEC3","name":"accessorPositions"},{"bufferView":1,"byteOffset":432,"componentType":5126,"count":36,"type":"VEC3","name":"accessorNormals"},{"bufferView":2,"componentType":5126,"count":36,"type":"VEC2","name":"accessorUVs"}],"bufferViews":[{"buffer":0,"byteLength":72,"name":"bufferViewScalar"},{"buffer":0,"byteOffset":72,"byteLength":864,"byteStride":12,"name":"bufferViewFloatVec3"},{"buffer":0,"byteOffset":936,"byteLength":288,"byteStride":8,"name":"bufferViewFloatVec2"}],"buffers":[{"uri":"walls.bin","byteLength":1224}]}